<svg width="47" height="56" viewBox="0 0 47 56" fill="none" xmlns="http://www.w3.org/2000/svg">
<g id="save">
<path id="Rectangle 11" d="M5.5 19C5.5 14.5817 9.08172 11 13.5 11H33.5C37.9183 11 41.5 14.5817 41.5 19V39C41.5 43.4183 37.9183 47 33.5 47H13.5C9.08172 47 5.5 43.4183 5.5 39V19Z" fill="#0010B5"/>
<path id="tag" d="M24.2376 38.9098L34.1317 29.4352C34.9192 28.6722 35 28.228 35 27.1269V23.4665C35 22.3944 34.7375 22.0274 33.9197 21.2451L31.6077 19.0334C30.7799 18.2511 30.3962 18 29.2857 18H25.4492C24.3083 18 23.8439 18.0773 23.0564 18.8403L13.1421 28.3052C11.6277 29.7539 11.6075 31.2896 13.1522 32.748L19.5935 38.9098C21.1281 40.3682 22.7232 40.3586 24.2376 38.9098ZM22.9353 37.4321C22.2689 38.0696 21.5723 38.0792 20.8858 37.4225L14.6969 31.5117C14.0104 30.855 14.0306 30.1789 14.6868 29.5511L24.49 20.1924C24.692 19.9992 24.8838 19.8833 25.2069 19.8833H29.2655C29.5683 19.8833 29.7804 19.9896 29.9823 20.1827L32.7183 22.8001C32.9101 22.9932 33.0212 23.1864 33.0212 23.4858V27.3684C33.0212 27.6871 32.9202 27.8706 32.7183 28.0638L22.9353 37.4321ZM28.0237 26.0549C28.8515 26.0549 29.4775 25.4464 29.4775 24.6641C29.4775 23.8915 28.8515 23.2733 28.0237 23.2733C27.2059 23.2733 26.5799 23.8915 26.5799 24.6641C26.5799 25.4464 27.2059 26.0549 28.0237 26.0549Z" fill="white"/>
<path id="plus" d="M32.7482 14.2482H36.7518V18.2518C36.7518 18.6587 37.0865 19 37.5 19C37.9135 19 38.2482 18.6587 38.2482 18.2518V14.2482H42.2518C42.6587 14.2482 43 13.9135 43 13.5C43 13.0865 42.6587 12.7518 42.2518 12.7518H38.2482V8.74821C38.2482 8.34129 37.9135 8 37.5 8C37.0865 8 36.7518 8.34129 36.7518 8.74821V12.7518H32.7482C32.3413 12.7518 32 13.0865 32 13.5C32 13.9135 32.3413 14.2482 32.7482 14.2482Z" fill="#00088C"/>
<path id="plus_2" d="M3.74821 43.2482H7.75179V47.2518C7.75179 47.6587 8.08652 48 8.5 48C8.91348 48 9.24821 47.6587 9.24821 47.2518V43.2482H13.2518C13.6587 43.2482 14 42.9135 14 42.5C14 42.0865 13.6587 41.7518 13.2518 41.7518H9.24821V37.7482C9.24821 37.3413 8.91348 37 8.5 37C8.08652 37 7.75179 37.3413 7.75179 37.7482V41.7518H3.74821C3.34129 41.7518 3 42.0865 3 42.5C3 42.9135 3.34129 43.2482 3.74821 43.2482Z" fill="#00088C"/>
<path id="plus_3" d="M40.4761 3.97613H43.0239V6.52387C43.0239 6.78282 43.2369 7 43.5 7C43.7631 7 43.9761 6.78282 43.9761 6.52387V3.97613H46.5239C46.7828 3.97613 47 3.76313 47 3.5C47 3.23687 46.7828 3.02387 46.5239 3.02387H43.9761V0.476134C43.9761 0.217184 43.7631 0 43.5 0C43.2369 0 43.0239 0.217184 43.0239 0.476134V3.02387H40.4761C40.2172 3.02387 40 3.23687 40 3.5C40 3.76313 40.2172 3.97613 40.4761 3.97613Z" fill="#0010B5"/>
<path id="plus_4" d="M0.476134 52.9761H3.02387V55.5239C3.02387 55.7828 3.23687 56 3.5 56C3.76313 56 3.97613 55.7828 3.97613 55.5239V52.9761H6.52387C6.78282 52.9761 7 52.7631 7 52.5C7 52.2369 6.78282 52.0239 6.52387 52.0239H3.97613V49.4761C3.97613 49.2172 3.76313 49 3.5 49C3.23687 49 3.02387 49.2172 3.02387 49.4761V52.0239H0.476134C0.217184 52.0239 0 52.2369 0 52.5C0 52.7631 0.217184 52.9761 0.476134 52.9761Z" fill="#00088C"/>
</g>
</svg>
